<svg width="842" height="595" viewBox="0 0 842 595" fill="none" xmlns="http://www.w3.org/2000/svg">
<path d="M649.874 279.78C651.547 299.822 636.32 317.615 615.876 319.514C600.224 320.967 586.065 312.679 579.524 299.734L560.97 301.249L546.962 307.506C543.758 308.933 541.603 311.769 541.111 315.024C539.788 323.803 537.387 332.257 534.051 340.292C532.917 343.014 533.115 346.051 534.656 348.589L539.646 356.851L553.522 365.472C560.837 362.881 569.354 363.503 576.357 367.852C588.229 375.231 591.074 390.416 582.246 401.102C574.647 410.309 560.516 412.839 549.76 406.922C542.907 403.159 538.767 396.91 537.756 390.232L522.378 380.683L512.699 379.589C509.372 379.213 506.064 380.272 503.644 382.416C495.478 389.619 486.253 395.807 476.224 400.761C472.85 402.423 470.685 405.618 470.449 409.145L469.22 427.297L475.307 449.659C485.667 452.337 494.23 459.943 497.047 470.288C501.3 485.928 490.808 501.795 473.7 505.323C458.266 508.508 442.434 500.176 437.528 486.252C433.71 475.381 437.216 464.144 445.288 456.801L439.173 434.308L429.73 420.252C427.197 416.479 422.717 414.248 417.915 414.256C417.887 414.256 417.868 414.256 417.84 414.256C409.569 414.256 401.479 413.495 393.652 412.068C388.993 411.211 384.182 412.576 380.911 415.77L368.435 427.962L354.465 454.796C357.735 460.949 358.028 468.38 354.569 475.04C348.349 486.978 332.489 491.722 319.814 485.123C308.963 479.46 304.266 466.962 308.992 456.284C312.215 449.002 318.897 444.136 326.459 442.508L340.514 415.499L343.274 397.373C343.775 394.03 342.395 390.661 339.559 388.543C328.378 380.14 318.793 369.997 311.298 358.549C309.436 355.704 306.09 353.98 302.498 353.954L282.952 353.779L261.553 360.011C260.05 372.334 250.938 383.282 237.346 387.238C219.085 392.56 199.633 383.265 193.707 366.461C187.781 349.665 197.79 331.295 215.91 325.746C228.594 321.86 241.921 325.089 250.938 333.028L273.651 326.411L290.239 315.462C292.706 313.843 294.02 311.13 293.774 308.347C293.5 305.257 293.358 302.141 293.358 298.991C293.358 281.871 297.423 265.619 304.682 251.002C305.74 248.858 305.712 246.39 304.597 244.272L299.682 234.969L286.345 225.647C278.878 227.862 270.419 226.803 263.689 222.103C252.271 214.121 250.343 198.813 259.795 188.6C267.933 179.804 282.196 178.001 292.583 184.46C299.2 188.573 302.961 195.015 303.566 201.737L318.349 212.064L333.245 214.524C344.087 205.202 356.724 197.649 370.609 192.354L374.106 172.679L369.692 152.357C356.629 149.241 346.024 139.973 343.17 127.615C339.143 110.154 352.102 93.1486 372.121 89.639C392.131 86.1294 411.62 97.4284 415.647 114.889C418.662 127.956 412.169 140.76 400.316 147.85L404.484 167.017L414.721 182.141C415.392 183.13 416.564 183.725 417.821 183.725H417.84C441.281 183.725 463.228 189.764 481.971 200.249C483.001 200.818 484.268 200.896 485.355 200.424L501.385 193.545L520.1 174.797C518.975 168.076 521.045 160.952 526.423 155.569C536.14 145.845 552.775 145.6 562.813 155.324C571.613 163.857 571.953 177.467 563.597 186.377C558.191 192.144 550.431 194.805 542.851 194.28L524.136 213.027L518.058 228.168C517.633 229.218 517.822 230.391 518.531 231.301C525.913 240.684 531.801 251.134 535.866 262.354C536.99 265.435 539.637 267.833 543.021 268.717L558.238 272.664L578.012 271.045C582.86 258.1 594.968 248.307 609.836 246.924C630.281 245.025 648.211 259.737 649.874 279.78V279.78Z" fill="#382D62"/>
<path d="M417.839 384.341C468.746 384.341 510.014 346.129 510.014 298.99C510.014 251.852 468.746 213.639 417.839 213.639C366.933 213.639 325.665 251.852 325.665 298.99C325.665 346.129 366.933 384.341 417.839 384.341Z" fill="#785292"/>
<path d="M353.759 298.99C353.759 256.274 387.646 220.888 431.887 214.624C427.306 213.975 422.615 213.639 417.839 213.639C366.932 213.639 325.665 251.851 325.665 298.99C325.665 346.13 366.932 384.341 417.839 384.341C422.615 384.341 427.306 384.005 431.887 383.357C387.647 377.092 353.759 341.706 353.759 298.99Z" fill="#5D3975"/>
<path d="M262.751 143.823C277.248 143.823 289 132.941 289 119.518C289 106.094 277.248 95.2119 262.751 95.2119C248.254 95.2119 236.502 106.094 236.502 119.518C236.502 132.941 248.254 143.823 262.751 143.823Z" fill="#563E81"/>
<path d="M255.575 455.957C265.151 455.957 272.913 448.769 272.913 439.903C272.913 431.036 265.151 423.849 255.575 423.849C246 423.849 238.238 431.036 238.238 439.903C238.238 448.769 246 455.957 255.575 455.957Z" fill="#563E81"/>
<path d="M573.904 489.922C588.008 489.922 599.441 479.335 599.441 466.275C599.441 453.215 588.008 442.628 573.904 442.628C559.801 442.628 548.367 453.215 548.367 466.275C548.367 479.335 559.801 489.922 573.904 489.922Z" fill="#563E81"/>
<path d="M389.547 297.498C402.696 297.498 413.355 287.628 413.355 275.453C413.355 263.277 402.696 253.407 389.547 253.407C376.398 253.407 365.738 263.277 365.738 275.453C365.738 287.628 376.398 297.498 389.547 297.498Z" fill="#563E81"/>
<path d="M408.658 358.934C417.608 358.934 424.864 352.216 424.864 343.929C424.864 335.642 417.608 328.923 408.658 328.923C399.708 328.923 392.453 335.642 392.453 343.929C392.453 352.216 399.708 358.934 408.658 358.934Z" fill="#563E81"/>
<path d="M459.543 311.591C467.058 311.591 473.151 305.95 473.151 298.991C473.151 292.032 467.058 286.39 459.543 286.39C452.028 286.39 445.935 292.032 445.935 298.991C445.935 305.95 452.028 311.591 459.543 311.591Z" fill="#563E81"/>
</svg>
